<?xml version="1.0" encoding="UTF-8"?>
<svg width="1200pt" height="1200pt" version="1.1" viewBox="0 0 1200 1200" xmlns="http://www.w3.org/2000/svg">
 <path d="m1124.9 246.12h-1049.8c-11.98 0.03125-23.453 4.8125-31.914 13.293-8.457 8.4805-13.207 19.969-13.207 31.945v617.28c0.03125 11.957 4.7969 23.414 13.25 31.867 8.457 8.457 19.914 13.219 31.871 13.254h1049.8c11.957-0.035157 23.414-4.7969 31.871-13.254 8.4531-8.4531 13.219-19.91 13.25-31.867v-617.28c0-11.977-4.75-23.465-13.207-31.945-8.4609-8.4805-19.934-13.262-31.914-13.293zm-918.12 675 23.039-69.84c1.582-5.25 6.5234-8.7539 12-8.5195h714.72c5.4766-0.23438 10.414 3.2695 12 8.5195l23.039 69.719zm930.48-12h-0.003907c0 3.1797-1.2617 6.2344-3.5117 8.4844s-5.3047 3.5156-8.4883 3.5156h-99.359l-26.398-80.039v-0.003906c-2.9805-9.0391-8.7383-16.91-16.449-22.492-7.7148-5.5781-16.992-8.5859-26.512-8.5859h-714.84c-9.5195 0-18.797 3.0078-26.512 8.5859-7.7109 5.582-13.469 13.453-16.449 22.492l-26.398 80.039-97.199 0.003906c-6.6289 0-12-5.375-12-12v-617.76c0-6.625 5.3711-12 12-12h1049.8c3.1836 0 6.2344 1.2656 8.4883 3.5156 2.25 2.25 3.5117 5.3008 3.5117 8.4844z"/>
 <path d="m1040.9 331.56c-12.723-12.762-29.98-19.965-48-20.039h-787.2c-18.02 0.074219-35.277 7.2773-48 20.039l-36 36c-12.762 12.723-19.969 29.98-20.039 48v333.36c0.03125 10.523 4.2266 20.605 11.668 28.051 7.4414 7.4414 17.527 11.637 28.051 11.668h915.36c10.527-0.03125 20.609-4.2266 28.051-11.668 7.4453-7.4453 11.641-17.527 11.672-28.051v-333.36c-0.074218-18.02-7.2773-35.277-20.043-48zm22.801 417.36v0.003906c0 3.8438-3.1172 6.957-6.9609 6.957h-915.36c-3.8438 0-6.9609-3.1133-6.9609-6.957v-333.36c0.011718-9.4844 3.7617-18.582 10.441-25.32l36-36c6.7344-6.6797 15.836-10.43 25.32-10.438h786.24c9.4883 0.007813 18.586 3.7578 25.32 10.438l36 36c6.6797 6.7383 10.434 15.836 10.441 25.32z"/>
 <path d="m920.04 555.84c-1.168-23.645-11.367-45.941-28.492-62.285s-39.875-25.492-63.547-25.555h-459.84c-24.68-0.011719-48.328 9.8906-65.641 27.48-17.73 16.914-27.766 40.352-27.766 64.859 0 24.508 10.035 47.945 27.766 64.859 17.312 17.59 40.961 27.492 65.641 27.48h459.84c23.676-0.03125 46.434-9.1484 63.582-25.469 17.148-16.324 27.379-38.605 28.578-62.25v-4.5586c0-1.5234-0.039062-3.043-0.12109-4.5625zm-612 4.5586c-0.011718-15.578 6.1094-30.535 17.039-41.637 10.883-10.172 25.316-15.684 40.207-15.348 14.891 0.33594 29.062 6.4844 39.473 17.137 10.414 10.648 16.246 24.953 16.246 39.848 0 14.898-5.832 29.199-16.246 39.852-10.41 10.648-24.582 16.801-39.473 17.137-14.891 0.33203-29.324-5.1758-40.207-15.348-10.711-11.195-16.609-26.145-16.438-41.641zm123.24-60h331.8c-14.566 16.406-22.609 37.582-22.609 59.523 0 21.938 8.043 43.113 22.609 59.52h-331.08c14.566-16.406 22.613-37.582 22.613-59.52 0-21.941-8.0469-43.117-22.613-59.523zm399.12 117c-15.117 0-29.613-6.0039-40.305-16.691-10.688-10.691-16.695-25.191-16.695-40.309 0-15.117 6.0078-29.613 16.695-40.305 10.691-10.688 25.188-16.695 40.305-16.695 15.117 0 29.617 6.0078 40.309 16.695 10.688 10.691 16.691 25.188 16.691 40.305-0.03125 15.109-6.0469 29.59-16.727 40.273-10.684 10.68-25.164 16.695-40.273 16.727z"/>
</svg>
